<mxfile host="app.diagrams.net" modified="2024-10-24T15:23:35.124Z" agent="Mozilla/5.0 (Windows NT 10.0; Win64; x64) AppleWebKit/537.36 (KHTML, like Gecko) Chrome/130.0.0.0 Safari/537.36 Edg/130.0.0.0" version="24.4.6" etag="9BeqB3BZHdOTgwqJQZD-" type="github">
  <diagram name="Page-1" id="f4ZUwOIflsWUWRSveVbb">
    <mxGraphModel>
      <root>
        <mxCell id="0" />
        <mxCell id="1" parent="0" />
      </root>
    </mxGraphModel>
  </diagram>
</mxfile>
